<svg width="90" height="90" viewBox="0 0 90 90" fill="none" xmlns="http://www.w3.org/2000/svg">
<g clip-path="url(#clip0_263_305)">
<path fill-rule="evenodd" clip-rule="evenodd" d="M45 78.75C49.4321 78.75 53.8208 77.877 57.9156 76.1809C62.0103 74.4848 65.7309 71.9988 68.8649 68.8649C71.9988 65.7309 74.4848 62.0103 76.1809 57.9156C77.877 53.8208 78.75 49.4321 78.75 45C78.75 40.5679 77.877 36.1792 76.1809 32.0844C74.4848 27.9897 71.9988 24.2691 68.8649 21.1351C65.7309 18.0012 62.0103 15.5152 57.9156 13.8191C53.8208 12.123 49.4321 11.25 45 11.25C36.0489 11.25 27.4645 14.8058 21.1351 21.1351C14.8058 27.4645 11.25 36.0489 11.25 45C11.25 53.9511 14.8058 62.5355 21.1351 68.8649C27.4645 75.1942 36.0489 78.75 45 78.75ZM44.13 58.65L62.88 36.15L57.12 31.35L40.995 50.6963L32.6512 42.3488L27.3488 47.6512L38.5988 58.9012L41.5013 61.8038L44.13 58.65Z" fill="#2D60FF"/>
</g>
<defs>
<clipPath id="clip0_263_305">
<rect width="90" height="90" fill="white"/>
</clipPath>
</defs>
</svg>
