<svg width="90" height="90" viewBox="0 0 90 90" fill="none" xmlns="http://www.w3.org/2000/svg">
<path d="M57.3333 40.375C57.3333 42.928 55.952 45 54.25 45C52.548 45 51.1666 42.928 51.1666 40.375C51.1666 37.822 52.548 35.75 54.25 35.75C55.952 35.75 57.3333 37.822 57.3333 40.375ZM38.8333 40.375C38.8333 42.928 37.452 45 35.75 45C34.048 45 32.6666 42.928 32.6666 40.375C32.6666 37.822 34.048 35.75 35.75 35.75C37.452 35.75 38.8333 37.822 38.8333 40.375Z" fill="#2D60FF"/>
<path fill-rule="evenodd" clip-rule="evenodd" d="M44.8242 11.8535H45.1757C52.2951 11.8535 57.8729 11.8535 62.2265 12.4393C66.6789 13.0375 70.1939 14.2893 72.9535 17.0458C75.713 19.8054 76.9618 23.3204 77.56 27.7758C78.1458 32.1264 78.1458 37.7042 78.1458 44.8236V45.1751C78.1458 52.2945 78.1458 57.8723 77.56 62.2259C76.9618 66.6783 75.71 70.1933 72.9535 72.9528C70.1939 75.7124 66.6789 76.9612 62.2235 77.5593C57.8729 78.1452 52.2951 78.1452 45.1757 78.1452H44.8242C37.7048 78.1452 32.127 78.1452 27.7734 77.5593C23.321 76.9612 19.806 75.7093 17.0465 72.9528C14.2869 70.1933 13.0381 66.6783 12.44 62.2228C11.8541 57.8723 11.8541 52.2945 11.8541 45.1751V44.8236C11.8541 37.7042 11.8541 32.1264 12.44 27.7728C13.0381 23.3204 14.29 19.8054 17.0465 17.0458C19.806 14.2863 23.321 13.0375 27.7765 12.4393C32.127 11.8535 37.7048 11.8535 44.8242 11.8535ZM28.39 17.0212C24.4495 17.5515 22.0723 18.5628 20.3179 20.3173C18.5604 22.0748 17.5521 24.4489 17.0218 28.3925C16.4853 32.4008 16.4791 37.6672 16.4791 44.9993C16.4791 52.3315 16.4853 57.5978 17.0218 61.6062C17.5521 65.5498 18.5635 67.927 20.3179 69.6845C22.0754 71.4389 24.4495 72.4472 28.3931 72.9775C32.4015 73.514 37.6678 73.5202 45 73.5202C52.3321 73.5202 57.5985 73.514 61.6068 72.9775C65.5504 72.4472 67.9276 71.4358 69.6851 69.6814C71.4395 67.9239 72.4478 65.5498 72.9781 61.6062C73.5146 57.5978 73.5208 52.3315 73.5208 44.9993C73.5208 37.6672 73.5146 32.4008 72.9781 28.3925C72.4478 24.4489 71.4365 22.0717 69.682 20.3142C67.9245 18.5598 65.5504 17.5515 61.6068 17.0212C57.5985 16.4847 52.3321 16.4785 45 16.4785C37.6678 16.4785 32.3984 16.4847 28.39 17.0212ZM34.3748 58.5598C37.4431 56.2669 41.1695 55.0255 45 55.0202C48.962 55.0202 52.6281 56.3368 55.6282 58.5598C55.8796 58.7379 56.093 58.9643 56.2557 59.226C56.4183 59.4876 56.5271 59.7791 56.5756 60.0833C56.6241 60.3876 56.6113 60.6984 56.5379 60.9976C56.4646 61.2969 56.3322 61.5784 56.1485 61.8258C55.9649 62.0731 55.7336 62.2813 55.4684 62.438C55.2032 62.5947 54.9093 62.6969 54.6041 62.7385C54.2988 62.7801 53.9883 62.7602 53.6908 62.6802C53.3933 62.6001 53.1148 62.4614 52.8717 62.2722C50.5996 60.5708 47.8385 59.6494 45 59.6452C42.1615 59.6494 39.4003 60.5708 37.1282 62.2722C36.8851 62.4614 36.6066 62.6001 36.3091 62.6802C36.0116 62.7602 35.7011 62.7801 35.3959 62.7385C35.0906 62.6969 34.7967 62.5947 34.5315 62.438C34.2663 62.2813 34.035 62.0731 33.8514 61.8258C33.6677 61.5784 33.5353 61.2969 33.462 60.9976C33.3887 60.6984 33.3759 60.3876 33.4243 60.0833C33.4728 59.7791 33.5816 59.4876 33.7443 59.226C33.907 58.9643 34.1234 58.7379 34.3748 58.5598Z" fill="#2D60FF"/>
</svg>
