<svg width="157" height="109" viewBox="0 0 157 109" fill="none" xmlns="http://www.w3.org/2000/svg">
<path d="M109.866 0.861745C130.619 0.347301 140.61 16.9787 136.445 35.6408C138.975 34.3683 141.704 33.5763 144.165 32.121C146.907 30.4964 154.723 21.6899 156.815 28.6823C158.785 35.255 144.863 42.0308 139.851 44.0953C137.963 44.8738 133.779 45.3476 132.684 46.478C131.823 47.3647 131.426 49.8828 130.66 51.2434C124.458 62.2565 113.313 74.3324 99.8487 75.5712C81.2017 77.2837 69.4542 66.8324 70.0832 48.1296C70.1858 45.0498 71.4303 42.0917 71.1432 39.0321C69.1807 42.1865 63.7445 42.1729 61.6042 44.4812C60.0042 46.2005 57.1527 53.0981 55.3544 55.8937C34.9568 87.7215 -6.94593 80.6141 1.35531 39.6684C3.83064 27.4504 14.7508 10.8596 25.6641 4.50346C43.6752 -5.98171 62.671 5.31574 63.9565 25.4873C64.1274 28.1679 63.8266 30.9228 63.9633 33.6101C67.9293 31.6945 70.5893 28.5605 73.5296 25.4873C78.2478 20.546 82.1112 14.8059 86.9319 9.98635C86.9319 9.98635 90.3919 5.36989 95.9648 3.04136C101.538 0.712823 109.866 0.854974 109.866 0.854974V0.861745ZM49.59 34.9639C50.6294 27.6331 51.826 15.9024 43.9214 11.814C33.1995 6.27017 33.3636 25.995 41.4324 31.8705C43.6752 33.5018 46.8822 34.4427 49.59 34.9639ZM121.381 36.3245C123.289 28.7229 126.229 15.828 117.217 11.6854C108.936 7.87442 105.599 15.2188 106.352 22.4481C107.111 29.718 114.379 35.3769 121.388 36.3245H121.381ZM117.976 45.1242C109.326 44.2375 101.456 38.5921 98.0162 30.6927L96.1016 22.1096C90.474 31.0785 81.8924 55.0814 91.5202 63.1839C101.873 71.8888 116.089 54.4383 117.983 45.1242H117.976ZM46.171 44.4473C37.0766 43.371 30.5532 38.0912 27.1138 29.7992L24.9803 23.4634C20.1596 32.5542 11.6874 56.4149 22.5734 63.4005C32.8029 69.9597 44.2154 52.9627 46.171 44.4541V44.4473Z" fill="#2D60FF"/>
<path d="M62.9786 108.529C49.4053 109.897 35.9072 107.23 24.7341 99.4048C19.8723 96 15.202 92.4531 18.238 85.8939C20.5356 80.9322 24.1802 82.2928 27.2983 85.3524C40.6391 98.4301 56.674 100.522 73.6868 92.0537C77.3793 90.2125 86.166 82.9765 89.161 82.9629C94.6313 82.9426 95.1715 88.9061 93.0586 92.9472C88.8465 101.009 71.7653 107.636 62.9786 108.523V108.529Z" fill="#2D60FF"/>
</svg>
