<svg width="143" height="55" viewBox="0 0 143 55" fill="none" xmlns="http://www.w3.org/2000/svg">
<g clip-path="url(#clip0_90_14547)">
<path d="M130.856 19.8472C136.203 19.7143 138.777 24.0088 137.704 28.8277C138.356 28.4991 139.059 28.2946 139.693 27.9188C140.399 27.4993 142.413 25.2254 142.952 27.0309C143.46 28.7281 139.873 30.4777 138.581 31.0108C138.095 31.2118 137.017 31.3341 136.735 31.626C136.513 31.855 136.411 32.5052 136.213 32.8565C134.615 35.7003 131.744 38.8185 128.274 39.1383C123.47 39.5806 120.443 36.8819 120.605 32.0525C120.632 31.2572 120.952 30.4934 120.878 29.7034C120.373 30.5179 118.972 30.5144 118.42 31.1104C118.008 31.5544 117.273 33.3354 116.81 34.0573C111.555 42.2758 100.758 40.4405 102.897 29.8677C103.535 26.7128 106.348 22.4288 109.16 20.7875C113.801 18.0801 118.695 20.9973 119.027 26.2059C119.071 26.8981 118.993 27.6094 119.028 28.3033C120.05 27.8087 120.736 26.9994 121.493 26.2059C122.709 24.93 123.704 23.4478 124.946 22.2033C124.946 22.2033 125.838 21.0113 127.274 20.41C128.71 19.8087 130.856 19.8454 130.856 19.8454V19.8472ZM115.325 28.6529C115.593 26.76 115.901 23.7309 113.864 22.6752C111.102 21.2437 111.144 26.337 113.223 27.8541C113.801 28.2754 114.627 28.5183 115.325 28.6529ZM133.822 29.0042C134.314 27.0414 135.072 23.7117 132.75 22.642C130.616 21.658 129.756 23.5544 129.95 25.4211C130.146 27.2983 132.018 28.7595 133.824 29.0042H133.822ZM132.945 31.2765C130.716 31.0475 128.688 29.5898 127.802 27.55L127.309 25.3337C125.859 27.6496 123.648 33.8476 126.129 35.9398C128.796 38.1875 132.459 33.6815 132.947 31.2765H132.945ZM114.444 31.1017C112.101 30.8238 110.42 29.4604 109.534 27.3193L108.984 25.6833C107.742 28.0307 105.559 34.1919 108.364 35.9957C111 37.6894 113.94 33.3005 114.444 31.1034V31.1017Z" fill="#2D60FF"/>
<path d="M66.4181 31.3465C67.4136 30.0653 68.3561 28.7841 69.2388 27.4156C70.9584 24.7501 72.5634 21.1215 74.3746 18.7025C75.2256 17.5646 76.6421 17.1958 78.0269 17.5052C79.6777 17.874 78.7598 18.8755 78.4709 19.6183C76.665 24.2554 79.0629 24.8829 80.0812 28.7509C81.644 34.6884 78.3229 39.6943 71.8922 39.1472C70.1374 38.9987 67.4277 37.8975 67.2374 35.8857C67.1704 35.1778 67.6426 34.1343 68.3315 33.8547C70.5725 32.9476 69.9471 36.1077 72.4718 36.4712C75.6519 36.9309 76.0519 33.5243 75.8387 31.2084C75.6061 28.6618 74.105 26.5923 73.9218 24.1086L70.7558 29.6179C67.5316 34.5731 63.3049 39.5824 56.7368 39.1472C55.0877 39.0389 52.9893 38.4289 52.1014 36.9274C51.2945 35.5641 51.904 33.8092 53.5796 33.7131C54.9309 33.6362 54.6279 34.6045 55.3326 35.4697C56.6399 37.076 58.9937 36.8365 60.042 35.066C61.1449 33.2027 60.641 30.7505 60.1319 28.7876C59.702 27.1342 58.7541 25.6188 58.77 23.9321C55.6832 28.3052 53.2113 33.3968 48.9882 36.861C45.1967 39.9705 38.9686 40.7046 39.1272 34.2445C37.3266 37.0847 32.5167 40.743 29.1128 38.5844C26.2904 36.7946 27.802 32.0963 28.5561 29.5235C29.4141 26.5958 30.8148 22.4569 32.034 19.69C32.6224 18.3564 33.151 18.0068 34.6767 18.2078C35.9611 18.3774 36.7258 19.0118 36.5778 20.3507C36.4492 21.4991 34.7825 24.7361 34.2803 26.1117C33.5668 28.0623 31.7627 32.6067 32.0093 34.4892C32.1978 35.9172 33.084 36.0378 34.2821 35.5519C36.8385 34.5189 39.8125 29.4169 40.9524 26.9629C42.0148 24.6767 42.968 20.9083 44.1748 18.9734C45.1403 17.4248 48.405 18.1449 48.1989 20.1549C47.0132 24.0841 44.4462 28.8174 43.8771 32.8339C43.6181 34.6552 44.203 35.7494 46.2151 35.1551C50.595 33.8599 56.6223 22.2192 59.3285 18.4508C60.0244 17.2884 63.504 16.9564 63.8582 18.2882C63.9656 18.6902 62.8116 20.7492 62.6936 21.6144C62.35 24.1401 63.5904 25.1206 64.3673 27.2041C65.0756 29.1023 65.4755 31.3343 64.7655 33.2831C65.1214 33.0751 65.5478 32.556 65.8156 32.2292C66.0446 31.9495 66.1979 31.6262 66.4199 31.3413L66.4181 31.3465Z" fill="#2D60FF"/>
<path d="M19.7581 6.03438C23.9741 5.71253 28.5375 7.63331 27.9484 12.5187C27.7441 14.218 26.2513 16.9493 24.3141 17.0113C22.3306 17.0748 23.8488 15.0049 24.1515 13.9271C24.7212 11.9045 24.7481 9.37396 22.4276 8.47042C19.4912 7.32769 15.9702 9.39759 14.543 11.9444C10.946 18.3637 18.6083 21.2116 21.9518 25.1816C26.4496 30.5202 23.8384 37.5153 17.6971 40.0193C12.3344 42.2043 1.85791 41.0661 3.10166 33.2456C3.45808 31.003 5.40574 28.3603 7.93948 28.5729C10.1064 28.7545 8.27353 30.4376 7.80228 31.4031C3.79363 39.6251 17.2289 41.1192 19.4957 33.8259C21.7639 26.5281 11.6782 24.2973 9.90503 18.3607C8.00062 11.9916 13.6109 6.50387 19.7581 6.03438Z" fill="#2D60FF"/>
<path d="M94.3575 34.071C92.0971 36.5495 89.5389 39.3356 85.8161 38.9633C80.4971 38.4319 82.8844 31.3164 83.9168 28.1685C84.9493 25.0206 86.3658 21.8569 87.3295 18.6199C88.5839 17.753 91.2778 18.1445 91.3553 20.0164C90.2665 23.9054 87.9902 27.8137 87.1886 31.7638C86.8027 33.6655 86.4785 35.9832 89.2605 35.3924C92.6274 34.6758 96.7483 26.7108 97.6557 23.6223C98.0909 22.1401 98.1067 18.9013 99.9038 18.6881C102.682 18.3577 102.751 20.0566 102.411 22.224C101.755 26.4014 99.71 32.0295 98.1895 36.0391C96.0277 41.7441 92.2609 51.5426 86.3746 54.2064C79.8752 57.1445 76.2969 51.3661 80.7878 46.2169C83.6649 42.9169 88.4113 40.9226 92.342 39.152L94.3575 34.0745V34.071ZM91.1862 42.4607C88.6808 43.4535 82.5338 47.7026 83.1205 50.7194C83.6296 53.3447 86.2072 51.1214 87.1304 50.0587C88.9257 47.9927 90.2366 45.0004 91.1862 42.4607Z" fill="#2D60FF"/>
<path d="M118.775 47.6486C115.278 48.0016 111.8 47.313 108.921 45.2924C107.668 44.4133 106.465 43.4974 107.247 41.8037C107.839 40.5225 108.778 40.8738 109.582 41.6639C113.019 45.0407 117.15 45.5808 121.534 43.3943C122.485 42.9188 124.749 41.0504 125.521 41.0469C126.93 41.0416 127.07 42.5815 126.525 43.625C125.44 45.7067 121.039 47.4178 118.775 47.6468V47.6486Z" fill="#2D60FF"/>
</g>
<defs>
<clipPath id="clip0_90_14547">
<rect width="143" height="55" fill="white"/>
</clipPath>
</defs>
</svg>
